<svg width="24" height="26" viewBox="0 0 24 26" fill="none" xmlns="http://www.w3.org/2000/svg">
<path fill="black" d="M21.4286 0.665405H2.57143C1.15179 0.665405 0 1.86521 0 3.34403V22.9873C0 24.4661 1.15179 25.6659 2.57143 25.6659H21.4286C22.8482 25.6659 24 24.4661 24 22.9873V3.34403C24 1.86521 22.8482 0.665405 21.4286 0.665405ZM18.8089 9.52719C18.8196 9.68345 18.8196 9.84528 18.8196 10.0015C18.8196 14.8398 15.2839 20.4147 8.82321 20.4147C6.83036 20.4147 4.98214 19.812 3.42857 18.774C3.7125 18.8075 3.98571 18.8187 4.275 18.8187C5.91964 18.8187 7.43036 18.2383 8.63571 17.2561C7.09286 17.2227 5.79643 16.168 5.35179 14.717C5.89286 14.8007 6.38036 14.8007 6.9375 14.6501C5.33036 14.3097 4.125 12.8364 4.125 11.0562V11.0116C4.59107 11.285 5.1375 11.4525 5.71071 11.4748C5.2288 11.1409 4.83374 10.6879 4.56079 10.1562C4.28784 9.62454 4.14548 9.03076 4.14643 8.42784C4.14643 7.74702 4.31786 7.12201 4.62321 6.5807C6.35357 8.80173 8.95179 10.2527 11.8661 10.4089C11.3679 7.9256 13.1518 5.91105 15.2946 5.91105C16.3071 5.91105 17.2179 6.35191 17.8607 7.06621C18.6536 6.90995 19.4143 6.60303 20.0893 6.18449C19.8268 7.03272 19.275 7.74702 18.5464 8.19904C19.2536 8.12091 19.9393 7.91444 20.5714 7.62983C20.0946 8.36087 19.4946 9.00821 18.8089 9.52719Z" />
</svg>
